<svg id="mermaid-svg" width="100%" xmlns="http://www.w3.org/2000/svg" class="classDiagram" style="max-width: 673.40625px;" viewBox="0 0 673.40625 698" role="graphics-document document" aria-roledescription="class" xmlns:xlink="http://www.w3.org/1999/xlink"><style xmlns="http://www.w3.org/1999/xhtml">@import url("https://cdnjs.cloudflare.com/ajax/libs/font-awesome/6.7.2/css/all.min.css");</style><style>#mermaid-svg{font-family:"trebuchet ms",verdana,arial,sans-serif;font-size:16px;fill:#333;}@keyframes edge-animation-frame{from{stroke-dashoffset:0;}}@keyframes dash{to{stroke-dashoffset:0;}}#mermaid-svg .edge-animation-slow{stroke-dasharray:9,5!important;stroke-dashoffset:900;animation:dash 50s linear infinite;stroke-linecap:round;}#mermaid-svg .edge-animation-fast{stroke-dasharray:9,5!important;stroke-dashoffset:900;animation:dash 20s linear infinite;stroke-linecap:round;}#mermaid-svg .error-icon{fill:#552222;}#mermaid-svg .error-text{fill:#552222;stroke:#552222;}#mermaid-svg .edge-thickness-normal{stroke-width:1px;}#mermaid-svg .edge-thickness-thick{stroke-width:3.5px;}#mermaid-svg .edge-pattern-solid{stroke-dasharray:0;}#mermaid-svg .edge-thickness-invisible{stroke-width:0;fill:none;}#mermaid-svg .edge-pattern-dashed{stroke-dasharray:3;}#mermaid-svg .edge-pattern-dotted{stroke-dasharray:2;}#mermaid-svg .marker{fill:#333333;stroke:#333333;}#mermaid-svg .marker.cross{stroke:#333333;}#mermaid-svg svg{font-family:"trebuchet ms",verdana,arial,sans-serif;font-size:16px;}#mermaid-svg p{margin:0;}#mermaid-svg g.classGroup text{fill:#9370DB;stroke:none;font-family:"trebuchet ms",verdana,arial,sans-serif;font-size:10px;}#mermaid-svg g.classGroup text .title{font-weight:bolder;}#mermaid-svg .cluster-label text{fill:#333;}#mermaid-svg .cluster-label span{color:#333;}#mermaid-svg .cluster-label span p{background-color:transparent;}#mermaid-svg .cluster rect{fill:#ffffde;stroke:#aaaa33;stroke-width:1px;}#mermaid-svg .cluster text{fill:#333;}#mermaid-svg .cluster span{color:#333;}#mermaid-svg .nodeLabel,#mermaid-svg .edgeLabel{color:#131300;}#mermaid-svg .noteLabel .nodeLabel,#mermaid-svg .noteLabel .edgeLabel{color:black;}#mermaid-svg .edgeLabel .label rect{fill:#ECECFF;}#mermaid-svg .label text{fill:#131300;}#mermaid-svg .labelBkg{background:#ECECFF;}#mermaid-svg .edgeLabel .label span{background:#ECECFF;}#mermaid-svg .classTitle{font-weight:bolder;}#mermaid-svg .node rect,#mermaid-svg .node circle,#mermaid-svg .node ellipse,#mermaid-svg .node polygon,#mermaid-svg .node path{fill:#ECECFF;stroke:#9370DB;stroke-width:1;}#mermaid-svg .divider{stroke:#9370DB;stroke-width:1;}#mermaid-svg g.clickable{cursor:pointer;}#mermaid-svg g.classGroup rect{fill:#ECECFF;stroke:#9370DB;}#mermaid-svg g.classGroup line{stroke:#9370DB;stroke-width:1;}#mermaid-svg .classLabel .box{stroke:none;stroke-width:0;fill:#ECECFF;opacity:0.5;}#mermaid-svg .classLabel .label{fill:#9370DB;font-size:10px;}#mermaid-svg .relation{stroke:#333333;stroke-width:1;fill:none;}#mermaid-svg .dashed-line{stroke-dasharray:3;}#mermaid-svg .dotted-line{stroke-dasharray:1 2;}#mermaid-svg [id$="-compositionStart"],#mermaid-svg .composition{fill:#333333!important;stroke:#333333!important;stroke-width:1;}#mermaid-svg [id$="-compositionEnd"],#mermaid-svg .composition{fill:#333333!important;stroke:#333333!important;stroke-width:1;}#mermaid-svg [id$="-dependencyStart"],#mermaid-svg .dependency{fill:#333333!important;stroke:#333333!important;stroke-width:1;}#mermaid-svg [id$="-dependencyEnd"],#mermaid-svg .dependency{fill:#333333!important;stroke:#333333!important;stroke-width:1;}#mermaid-svg [id$="-extensionStart"],#mermaid-svg .extension{fill:transparent!important;stroke:#333333!important;stroke-width:1;}#mermaid-svg [id$="-extensionEnd"],#mermaid-svg .extension{fill:transparent!important;stroke:#333333!important;stroke-width:1;}#mermaid-svg [id$="-aggregationStart"],#mermaid-svg .aggregation{fill:transparent!important;stroke:#333333!important;stroke-width:1;}#mermaid-svg [id$="-aggregationEnd"],#mermaid-svg .aggregation{fill:transparent!important;stroke:#333333!important;stroke-width:1;}#mermaid-svg [id$="-lollipopStart"],#mermaid-svg .lollipop{fill:#ECECFF!important;stroke:#333333!important;stroke-width:1;}#mermaid-svg [id$="-lollipopEnd"],#mermaid-svg .lollipop{fill:#ECECFF!important;stroke:#333333!important;stroke-width:1;}#mermaid-svg .edgeTerminals{font-size:11px;line-height:initial;}#mermaid-svg .classTitleText{text-anchor:middle;font-size:18px;fill:#333;}#mermaid-svg .edgeLabel[data-look="neo"]{background-color:rgba(232,232,232, 0.8);text-align:center;}#mermaid-svg .edgeLabel[data-look="neo"] p{background-color:rgba(232,232,232, 0.8);}#mermaid-svg .edgeLabel[data-look="neo"] rect{opacity:0.5;background-color:rgba(232,232,232, 0.8);fill:rgba(232,232,232, 0.8);}#mermaid-svg .label-icon{display:inline-block;height:1em;overflow:visible;vertical-align:-0.125em;}#mermaid-svg .node .label-icon path{fill:currentColor;stroke:revert;stroke-width:revert;}#mermaid-svg .node .neo-node{stroke:#9370DB;}#mermaid-svg [data-look="neo"].node rect,#mermaid-svg [data-look="neo"].cluster rect,#mermaid-svg [data-look="neo"].node polygon{stroke:#9370DB;filter:drop-shadow(1px 2px 2px rgba(185, 185, 185, 1));}#mermaid-svg [data-look="neo"].swimlane.cluster rect{filter:none;}#mermaid-svg [data-look="neo"].node path{stroke:#9370DB;stroke-width:1px;}#mermaid-svg [data-look="neo"].node .outer-path{filter:drop-shadow(1px 2px 2px rgba(185, 185, 185, 1));}#mermaid-svg [data-look="neo"].node .neo-line path{stroke:#9370DB;filter:none;}#mermaid-svg [data-look="neo"].node circle{stroke:#9370DB;filter:drop-shadow(1px 2px 2px rgba(185, 185, 185, 1));}#mermaid-svg [data-look="neo"].node circle .state-start{fill:#000000;}#mermaid-svg [data-look="neo"].icon-shape .icon{fill:#9370DB;filter:drop-shadow(1px 2px 2px rgba(185, 185, 185, 1));}#mermaid-svg [data-look="neo"].icon-shape .icon-neo path{stroke:#9370DB;filter:drop-shadow(1px 2px 2px rgba(185, 185, 185, 1));}#mermaid-svg :root{--mermaid-font-family:"trebuchet ms",verdana,arial,sans-serif;}</style><g><defs><marker id="mermaid-svg_class-aggregationStart" class="marker aggregation class" refX="18" refY="7" markerWidth="190" markerHeight="240" orient="auto"><path d="M 18,7 L9,13 L1,7 L9,1 Z"/></marker></defs><defs><marker id="mermaid-svg_class-aggregationEnd" class="marker aggregation class" refX="1" refY="7" markerWidth="20" markerHeight="28" orient="auto"><path d="M 18,7 L9,13 L1,7 L9,1 Z"/></marker></defs><defs><marker id="mermaid-svg_class-aggregationStart-margin" class="marker aggregation class" refX="15" refY="7" markerWidth="190" markerHeight="240" orient="auto" markerUnits="userSpaceOnUse"><path d="M 18,7 L9,13 L1,7 L9,1 Z" style="stroke-width: 2;"/></marker></defs><defs><marker id="mermaid-svg_class-aggregationEnd-margin" class="marker aggregation class" refX="1" refY="7" markerWidth="20" markerHeight="28" orient="auto" markerUnits="userSpaceOnUse"><path d="M 18,7 L9,13 L1,7 L9,1 Z" style="stroke-width: 2;"/></marker></defs><defs><marker id="mermaid-svg_class-extensionStart" class="marker extension class" refX="18" refY="7" markerWidth="20" markerHeight="28" orient="auto" markerUnits="userSpaceOnUse"><path d="M 1,7 L18,13 V 1 Z"/></marker></defs><defs><marker id="mermaid-svg_class-extensionEnd" class="marker extension class" refX="1" refY="7" markerWidth="20" markerHeight="28" orient="auto"><path d="M 1,1 V 13 L18,7 Z"/></marker></defs><marker id="mermaid-svg_class-extensionStart-margin" class="marker extension class" refX="18" refY="7" markerWidth="20" markerHeight="28" orient="auto" markerUnits="userSpaceOnUse" viewBox="0 0 20 14"><polygon points="10,7 18,13 18,1" style="stroke-width: 2; stroke-dasharray: 0;"/></marker><defs><marker id="mermaid-svg_class-extensionEnd-margin" class="marker extension class" refX="9" refY="7" markerWidth="20" markerHeight="28" orient="auto" markerUnits="userSpaceOnUse" viewBox="0 0 20 14"><polygon points="10,1 10,13 18,7" style="stroke-width: 2; stroke-dasharray: 0;"/></marker></defs><defs><marker id="mermaid-svg_class-compositionStart" class="marker composition class" refX="18" refY="7" markerWidth="190" markerHeight="240" orient="auto"><path d="M 18,7 L9,13 L1,7 L9,1 Z"/></marker></defs><defs><marker id="mermaid-svg_class-compositionEnd" class="marker composition class" refX="1" refY="7" markerWidth="20" markerHeight="28" orient="auto"><path d="M 18,7 L9,13 L1,7 L9,1 Z"/></marker></defs><defs><marker id="mermaid-svg_class-compositionStart-margin" class="marker composition class" refX="15" refY="7" markerWidth="190" markerHeight="240" orient="auto" markerUnits="userSpaceOnUse"><path viewBox="0 0 15 15" d="M 18,7 L9,13 L1,7 L9,1 Z" style="stroke-width: 0;"/></marker></defs><defs><marker id="mermaid-svg_class-compositionEnd-margin" class="marker composition class" refX="3.5" refY="7" markerWidth="20" markerHeight="28" orient="auto" markerUnits="userSpaceOnUse"><path d="M 18,7 L9,13 L1,7 L9,1 Z" style="stroke-width: 0;"/></marker></defs><defs><marker id="mermaid-svg_class-dependencyStart" class="marker dependency class" refX="6" refY="7" markerWidth="190" markerHeight="240" orient="auto"><path d="M 5,7 L9,13 L1,7 L9,1 Z"/></marker></defs><defs><marker id="mermaid-svg_class-dependencyEnd" class="marker dependency class" refX="13" refY="7" markerWidth="20" markerHeight="28" orient="auto"><path d="M 18,7 L9,13 L14,7 L9,1 Z"/></marker></defs><defs><marker id="mermaid-svg_class-dependencyStart-margin" class="marker dependency class" refX="4" refY="7" markerWidth="190" markerHeight="240" orient="auto" markerUnits="userSpaceOnUse"><path d="M 5,7 L9,13 L1,7 L9,1 Z" style="stroke-width: 0;"/></marker></defs><defs><marker id="mermaid-svg_class-dependencyEnd-margin" class="marker dependency class" refX="16" refY="7" markerWidth="20" markerHeight="28" orient="auto" markerUnits="userSpaceOnUse"><path d="M 18,7 L9,13 L14,7 L9,1 Z" style="stroke-width: 0;"/></marker></defs><defs><marker id="mermaid-svg_class-lollipopStart" class="marker lollipop class" refX="13" refY="7" markerWidth="190" markerHeight="240" orient="auto"><circle fill="transparent" cx="7" cy="7" r="6"/></marker></defs><defs><marker id="mermaid-svg_class-lollipopEnd" class="marker lollipop class" refX="1" refY="7" markerWidth="190" markerHeight="240" orient="auto"><circle fill="transparent" cx="7" cy="7" r="6"/></marker></defs><defs><marker id="mermaid-svg_class-lollipopStart-margin" class="marker lollipop class" refX="13" refY="7" markerWidth="190" markerHeight="240" orient="auto" markerUnits="userSpaceOnUse"><circle fill="transparent" cx="7" cy="7" r="6" stroke-width="2"/></marker></defs><defs><marker id="mermaid-svg_class-lollipopEnd-margin" class="marker lollipop class" refX="1" refY="7" markerWidth="190" markerHeight="240" orient="auto" markerUnits="userSpaceOnUse"><circle fill="transparent" cx="7" cy="7" r="6" stroke-width="2"/></marker></defs><g class="root"><g class="clusters"/><g class="edgePaths"><path d="M380.83,182L374.622,186.167C368.415,190.333,356,198.667,342.501,208.318C329.001,217.969,314.416,228.937,307.123,234.422L299.83,239.906" id="mermaid-svg-id_AdminController_ServiceJob_1" class=" edge-thickness-normal edge-pattern-solid relation" style=";;;" data-edge="true" data-et="edge" data-id="id_AdminController_ServiceJob_1" data-points="W3sieCI6MzgwLjgyOTU4OTg0Mzc1LCJ5IjoxODJ9LHsieCI6MzQzLjU4NTkzNzUsInkiOjIwN30seyJ4IjoyOTUuMDM1MTU2MjUsInkiOjI0My41MTIyODA3NzkyNTUyfV0=" data-look="classic" marker-end="url(#mermaid-svg_class-dependencyEnd)"/><path d="M518.205,182L518.577,186.167C518.949,190.333,519.693,198.667,520.065,208C520.438,217.333,520.438,227.667,520.438,232.833L520.438,238" id="mermaid-svg-id_AdminController_InventoryPart_2" class=" edge-thickness-normal edge-pattern-solid relation" style=";;;" data-edge="true" data-et="edge" data-id="id_AdminController_InventoryPart_2" data-points="W3sieCI6NTE4LjIwNTM1NzE0Mjg1NzEsInkiOjE4Mn0seyJ4Ijo1MjAuNDM3NSwieSI6MjA3fSx7IngiOjUyMC40Mzc1LCJ5IjoyNDR9XQ==" data-look="classic" marker-end="url(#mermaid-svg_class-dependencyEnd)"/><path d="M156.734,182L156.734,186.167C156.734,190.333,156.734,198.667,156.973,206.003C157.211,213.339,157.688,219.678,157.926,222.847L158.164,226.017" id="mermaid-svg-id_CustomerController_ServiceJob_3" class=" edge-thickness-normal edge-pattern-solid relation" style=";;;" data-edge="true" data-et="edge" data-id="id_CustomerController_ServiceJob_3" data-points="W3sieCI6MTU2LjczNDM3NSwieSI6MTgyfSx7IngiOjE1Ni43MzQzNzUsInkiOjIwN30seyJ4IjoxNTguNjE0MDc0MjQ4MTIwMywieSI6MjMyfV0=" data-look="classic" marker-end="url(#mermaid-svg_class-dependencyEnd)"/><path d="M166.734,448L166.734,452.167C166.734,456.333,166.734,464.667,166.734,472C166.734,479.333,166.734,485.667,166.734,488.833L166.734,492" id="mermaid-svg-id_ServiceJob_Invoice_4" class=" edge-thickness-normal edge-pattern-solid relation" style=";;;" data-edge="true" data-et="edge" data-id="id_ServiceJob_Invoice_4" data-points="W3sieCI6MTY2LjczNDM3NSwieSI6NDQ4fSx7IngiOjE2Ni43MzQzNzUsInkiOjQ3M30seyJ4IjoxNjYuNzM0Mzc1LCJ5Ijo0OTh9XQ==" data-look="classic" marker-end="url(#mermaid-svg_class-dependencyEnd)"/></g><g class="edgeLabels"><g class="edgeLabel"><g class="label" data-id="id_AdminController_ServiceJob_1" transform="translate(0, 0)"><foreignObject width="0" height="0"><div xmlns="http://www.w3.org/1999/xhtml" class="labelBkg" style="display: table-cell; white-space: nowrap; line-height: 1.5; max-width: 200px; text-align: center;"><span class="edgeLabel "></span></div></foreignObject></g></g><g class="edgeLabel"><g class="label" data-id="id_AdminController_InventoryPart_2" transform="translate(0, 0)"><foreignObject width="0" height="0"><div xmlns="http://www.w3.org/1999/xhtml" class="labelBkg" style="display: table-cell; white-space: nowrap; line-height: 1.5; max-width: 200px; text-align: center;"><span class="edgeLabel "></span></div></foreignObject></g></g><g class="edgeLabel"><g class="label" data-id="id_CustomerController_ServiceJob_3" transform="translate(0, 0)"><foreignObject width="0" height="0"><div xmlns="http://www.w3.org/1999/xhtml" class="labelBkg" style="display: table-cell; white-space: nowrap; line-height: 1.5; max-width: 200px; text-align: center;"><span class="edgeLabel "></span></div></foreignObject></g></g><g class="edgeLabel"><g class="label" data-id="id_ServiceJob_Invoice_4" transform="translate(0, 0)"><foreignObject width="0" height="0"><div xmlns="http://www.w3.org/1999/xhtml" class="labelBkg" style="display: table-cell; white-space: nowrap; line-height: 1.5; max-width: 200px; text-align: center;"><span class="edgeLabel "></span></div></foreignObject></g></g></g><g class="nodes"><g class="node default " id="mermaid-svg-classId-AdminController-0" data-look="classic" transform="translate(510.4375, 95)"><g class="basic label-container outer-path"><path d="M-154.96875 -87 L154.96875 -87 L154.96875 87 L-154.96875 87" stroke="none" stroke-width="0" fill="#ECECFF" style=""/><path d="M-154.96875 -87 C-32.15995721525664 -87, 90.64883556948672 -87, 154.96875 -87 M-154.96875 -87 C-37.40803381544444 -87, 80.15268236911112 -87, 154.96875 -87 M154.96875 -87 C154.96875 -33.65118087151168, 154.96875 19.697638256976646, 154.96875 87 M154.96875 -87 C154.96875 -27.091328316832247, 154.96875 32.81734336633551, 154.96875 87 M154.96875 87 C66.24717187187647 87, -22.47440625624705 87, -154.96875 87 M154.96875 87 C90.79266435217431 87, 26.616578704348626 87, -154.96875 87 M-154.96875 87 C-154.96875 45.364097183561576, -154.96875 3.7281943671231517, -154.96875 -87 M-154.96875 87 C-154.96875 48.55016434483618, -154.96875 10.100328689672367, -154.96875 -87" stroke="#9370DB" stroke-width="1.3" fill="none" stroke-dasharray="0 0" style=""/></g><g class="annotation-group text" transform="translate(0, -63)"/><g class="label-group text" transform="translate(-63.109375, -63)"><g class="label" style="font-weight: bolder" transform="translate(0,-12)"><foreignObject width="126.21875" height="24"><div xmlns="http://www.w3.org/1999/xhtml" style="display: table-cell; white-space: nowrap; line-height: 1.5; max-width: 161px; text-align: center;"><span class="nodeLabel markdown-node-label" style=""><p>AdminController</p></span></div></foreignObject></g></g><g class="members-group text" transform="translate(-142.96875, -15)"/><g class="methods-group text" transform="translate(-142.96875, 15)"><g class="label" style="" transform="translate(0,-12)"><foreignObject width="120.515625" height="24"><div xmlns="http://www.w3.org/1999/xhtml" style="display: table-cell; white-space: nowrap; line-height: 1.5; max-width: 163px; text-align: center;"><span class="nodeLabel markdown-node-label" style=""><p>+getDashboard()</p></span></div></foreignObject></g><g class="label" style="" transform="translate(0,12)"><foreignObject width="222.828125" height="24"><div xmlns="http://www.w3.org/1999/xhtml" style="display: table-cell; white-space: nowrap; line-height: 1.5; max-width: 253px; text-align: center;"><span class="nodeLabel markdown-node-label" style=""><p>+updateJobStage(jobId, status)</p></span></div></foreignObject></g><g class="label" style="" transform="translate(0,36)"><foreignObject width="173.859375" height="24"><div xmlns="http://www.w3.org/1999/xhtml" style="display: table-cell; white-space: nowrap; line-height: 1.5; max-width: 215px; text-align: center;"><span class="nodeLabel markdown-node-label" style=""><p>+adjustStock(partId, qty)</p></span></div></foreignObject></g></g><g class="divider" style=""><path d="M-154.96875 -39 C-40.209446890438926 -38.99962973404926, 74.54985621912215 -38.99925946809851, 154.96875 -38.999 M-154.96875 -39 C-84.29031199680696 -38.999771959062706, -13.611873993613926 -38.99954391812541, 154.96875 -38.999" stroke="#9370DB" stroke-width="1.3" fill="none" stroke-dasharray="0 0" style=""/></g><g class="divider" style=""><path d="M-154.96875 -15 C-39.08511051028752 -14.999626106426328, 76.79852897942496 -14.999252212852658, 154.96875 -14.999 M-154.96875 -15 C-74.08915680642805 -14.999739045474673, 6.790436387143899 -14.999478090949346, 154.96875 -14.999" stroke="#9370DB" stroke-width="1.3" fill="none" stroke-dasharray="0 0" style=""/></g></g><g class="node default " id="mermaid-svg-classId-CustomerController-1" data-look="classic" transform="translate(156.734375, 95)"><g class="basic label-container outer-path"><path d="M-148.734375 -87 L148.734375 -87 L148.734375 87 L-148.734375 87" stroke="none" stroke-width="0" fill="#ECECFF" style=""/><path d="M-148.734375 -87 C-86.32808111878956 -87, -23.92178723757911 -87, 148.734375 -87 M-148.734375 -87 C-87.56262107830948 -87, -26.390867156618953 -87, 148.734375 -87 M148.734375 -87 C148.734375 -36.81202202546097, 148.734375 13.375955949078062, 148.734375 87 M148.734375 -87 C148.734375 -51.92790056154392, 148.734375 -16.855801123087844, 148.734375 87 M148.734375 87 C57.48486547011761 87, -33.76464405976478 87, -148.734375 87 M148.734375 87 C30.407006720742842 87, -87.92036155851432 87, -148.734375 87 M-148.734375 87 C-148.734375 27.842700953041735, -148.734375 -31.31459809391653, -148.734375 -87 M-148.734375 87 C-148.734375 17.64856459839477, -148.734375 -51.70287080321046, -148.734375 -87" stroke="#9370DB" stroke-width="1.3" fill="none" stroke-dasharray="0 0" style=""/></g><g class="annotation-group text" transform="translate(0, -63)"/><g class="label-group text" transform="translate(-75.5625, -63)"><g class="label" style="font-weight: bolder" transform="translate(0,-12)"><foreignObject width="151.125" height="24"><div xmlns="http://www.w3.org/1999/xhtml" style="display: table-cell; white-space: nowrap; line-height: 1.5; max-width: 179px; text-align: center;"><span class="nodeLabel markdown-node-label" style=""><p>CustomerController</p></span></div></foreignObject></g></g><g class="members-group text" transform="translate(-136.734375, -15)"/><g class="methods-group text" transform="translate(-136.734375, 15)"><g class="label" style="" transform="translate(0,-12)"><foreignObject width="189.875" height="24"><div xmlns="http://www.w3.org/1999/xhtml" style="display: table-cell; white-space: nowrap; line-height: 1.5; max-width: 225px; text-align: center;"><span class="nodeLabel markdown-node-label" style=""><p>+getCustomerDashboard()</p></span></div></foreignObject></g><g class="label" style="" transform="translate(0,12)"><foreignObject width="123.171875" height="24"><div xmlns="http://www.w3.org/1999/xhtml" style="display: table-cell; white-space: nowrap; line-height: 1.5; max-width: 170px; text-align: center;"><span class="nodeLabel markdown-node-label" style=""><p>+getMyVehicles()</p></span></div></foreignObject></g><g class="label" style="" transform="translate(0,36)"><foreignObject width="197.90625" height="24"><div xmlns="http://www.w3.org/1999/xhtml" style="display: table-cell; white-space: nowrap; line-height: 1.5; max-width: 236px; text-align: center;"><span class="nodeLabel markdown-node-label" style=""><p>+bookSlot(bookingRequest)</p></span></div></foreignObject></g></g><g class="divider" style=""><path d="M-148.734375 -39 C-31.83548906058128 -38.999607021288995, 85.06339687883744 -38.99921404257799, 148.734375 -38.999 M-148.734375 -39 C-76.56498935636367 -38.99975738834535, -4.395603712727336 -38.9995147766907, 148.734375 -38.999" stroke="#9370DB" stroke-width="1.3" fill="none" stroke-dasharray="0 0" style=""/></g><g class="divider" style=""><path d="M-148.734375 -15 C-80.83845693094143 -14.999771754451286, -12.942538861882866 -14.999543508902573, 148.734375 -14.999 M-148.734375 -15 C-47.0608263057116 -14.999658204269544, 54.6127223885768 -14.999316408539087, 148.734375 -14.999" stroke="#9370DB" stroke-width="1.3" fill="none" stroke-dasharray="0 0" style=""/></g></g><g class="node default " id="mermaid-svg-classId-ServiceJob-2" data-look="classic" transform="translate(166.734375, 340)"><g class="basic label-container outer-path"><path d="M-128.30078125 -108 L128.30078125 -108 L128.30078125 108 L-128.30078125 108" stroke="none" stroke-width="0" fill="#ECECFF" style=""/><path d="M-128.30078125 -108 C-52.19983058882855 -108, 23.901120072342906 -108, 128.30078125 -108 M-128.30078125 -108 C-40.099277724123056 -108, 48.10222580175389 -108, 128.30078125 -108 M128.30078125 -108 C128.30078125 -45.438575057687146, 128.30078125 17.12284988462571, 128.30078125 108 M128.30078125 -108 C128.30078125 -61.790351220943386, 128.30078125 -15.580702441886771, 128.30078125 108 M128.30078125 108 C57.46518194038991 108, -13.370417369220178 108, -128.30078125 108 M128.30078125 108 C53.048911145024576 108, -22.20295895995085 108, -128.30078125 108 M-128.30078125 108 C-128.30078125 64.35460159213605, -128.30078125 20.709203184272084, -128.30078125 -108 M-128.30078125 108 C-128.30078125 31.294506687492046, -128.30078125 -45.41098662501591, -128.30078125 -108" stroke="#9370DB" stroke-width="1.3" fill="none" stroke-dasharray="0 0" style=""/></g><g class="annotation-group text" transform="translate(0, -84)"/><g class="label-group text" transform="translate(-42.6953125, -84)"><g class="label" style="font-weight: bolder" transform="translate(0,-12)"><foreignObject width="85.390625" height="24"><div xmlns="http://www.w3.org/1999/xhtml" style="display: table-cell; white-space: nowrap; line-height: 1.5; max-width: 120px; text-align: center;"><span class="nodeLabel markdown-node-label" style=""><p>ServiceJob</p></span></div></foreignObject></g></g><g class="members-group text" transform="translate(-116.30078125, -36)"><g class="label" style="" transform="translate(0,-12)"><foreignObject width="57.828125" height="24"><div xmlns="http://www.w3.org/1999/xhtml" style="display: table-cell; white-space: nowrap; line-height: 1.5; max-width: 110px; text-align: center;"><span class="nodeLabel markdown-node-label" style=""><p>-Long id</p></span></div></foreignObject></g><g class="label" style="" transform="translate(0,12)"><foreignObject width="86.265625" height="24"><div xmlns="http://www.w3.org/1999/xhtml" style="display: table-cell; white-space: nowrap; line-height: 1.5; max-width: 137px; text-align: center;"><span class="nodeLabel markdown-node-label" style=""><p>-String jobId</p></span></div></foreignObject></g><g class="label" style="" transform="translate(0,36)"><foreignObject width="151.171875" height="24"><div xmlns="http://www.w3.org/1999/xhtml" style="display: table-cell; white-space: nowrap; line-height: 1.5; max-width: 187px; text-align: center;"><span class="nodeLabel markdown-node-label" style=""><p>-ServiceStatus status</p></span></div></foreignObject></g><g class="label" style="" transform="translate(0,60)"><foreignObject width="122.71875" height="24"><div xmlns="http://www.w3.org/1999/xhtml" style="display: table-cell; white-space: nowrap; line-height: 1.5; max-width: 167px; text-align: center;"><span class="nodeLabel markdown-node-label" style=""><p>-int stageNumber</p></span></div></foreignObject></g></g><g class="methods-group text" transform="translate(-116.30078125, 84)"><g class="label" style="" transform="translate(0,-12)"><foreignObject width="189.90625" height="24"><div xmlns="http://www.w3.org/1999/xhtml" style="display: table-cell; white-space: nowrap; line-height: 1.5; max-width: 221px; text-align: center;"><span class="nodeLabel markdown-node-label" style=""><p>+updateStage(step, name)</p></span></div></foreignObject></g></g><g class="divider" style=""><path d="M-128.30078125 -60 C-26.622714166134045 -59.99960375117714, 75.05535291773191 -59.99920750235429, 128.30078125 -59.999 M-128.30078125 -60 C-37.504271887692596 -59.99964615761308, 53.29223747461481 -59.999292315226164, 128.30078125 -59.999" stroke="#9370DB" stroke-width="1.3" fill="none" stroke-dasharray="0 0" style=""/></g><g class="divider" style=""><path d="M-128.30078125 60 C-36.34583018280867 60.000358356941284, 55.60912088438266 60.000716713882575, 128.30078125 60.001 M-128.30078125 60 C-45.168540878134564 60.00032397402246, 37.96369949373087 60.000647948044914, 128.30078125 60.001" stroke="#9370DB" stroke-width="1.3" fill="none" stroke-dasharray="0 0" style=""/></g></g><g class="node default " id="mermaid-svg-classId-InventoryPart-3" data-look="classic" transform="translate(520.4375, 340)"><g class="basic label-container outer-path"><path d="M-106.48828125 -96 L106.48828125 -96 L106.48828125 96 L-106.48828125 96" stroke="none" stroke-width="0" fill="#ECECFF" style=""/><path d="M-106.48828125 -96 C-62.19800594454488 -96, -17.907730639089763 -96, 106.48828125 -96 M-106.48828125 -96 C-26.8435125579675 -96, 52.801256134065 -96, 106.48828125 -96 M106.48828125 -96 C106.48828125 -55.619239331359346, 106.48828125 -15.238478662718691, 106.48828125 96 M106.48828125 -96 C106.48828125 -38.312531393889486, 106.48828125 19.374937212221027, 106.48828125 96 M106.48828125 96 C49.99819982314354 96, -6.491881603712926 96, -106.48828125 96 M106.48828125 96 C32.674666740860786 96, -41.13894776827843 96, -106.48828125 96 M-106.48828125 96 C-106.48828125 47.596255503606834, -106.48828125 -0.8074889927863325, -106.48828125 -96 M-106.48828125 96 C-106.48828125 38.439677421274816, -106.48828125 -19.12064515745037, -106.48828125 -96" stroke="#9370DB" stroke-width="1.3" fill="none" stroke-dasharray="0 0" style=""/></g><g class="annotation-group text" transform="translate(0, -72)"/><g class="label-group text" transform="translate(-51.5703125, -72)"><g class="label" style="font-weight: bolder" transform="translate(0,-12)"><foreignObject width="103.140625" height="24"><div xmlns="http://www.w3.org/1999/xhtml" style="display: table-cell; white-space: nowrap; line-height: 1.5; max-width: 139px; text-align: center;"><span class="nodeLabel markdown-node-label" style=""><p>InventoryPart</p></span></div></foreignObject></g></g><g class="members-group text" transform="translate(-94.48828125, -24)"><g class="label" style="" transform="translate(0,-12)"><foreignObject width="57.828125" height="24"><div xmlns="http://www.w3.org/1999/xhtml" style="display: table-cell; white-space: nowrap; line-height: 1.5; max-width: 110px; text-align: center;"><span class="nodeLabel markdown-node-label" style=""><p>-Long id</p></span></div></foreignObject></g><g class="label" style="" transform="translate(0,12)"><foreignObject width="76.46875" height="24"><div xmlns="http://www.w3.org/1999/xhtml" style="display: table-cell; white-space: nowrap; line-height: 1.5; max-width: 125px; text-align: center;"><span class="nodeLabel markdown-node-label" style=""><p>-String sku</p></span></div></foreignObject></g><g class="label" style="" transform="translate(0,36)"><foreignObject width="123.609375" height="24"><div xmlns="http://www.w3.org/1999/xhtml" style="display: table-cell; white-space: nowrap; line-height: 1.5; max-width: 170px; text-align: center;"><span class="nodeLabel markdown-node-label" style=""><p>-int stockQuantity</p></span></div></foreignObject></g></g><g class="methods-group text" transform="translate(-94.48828125, 72)"><g class="label" style="" transform="translate(0,-12)"><foreignObject width="137.40625" height="24"><div xmlns="http://www.w3.org/1999/xhtml" style="display: table-cell; white-space: nowrap; line-height: 1.5; max-width: 180px; text-align: center;"><span class="nodeLabel markdown-node-label" style=""><p>+adjustStock(delta)</p></span></div></foreignObject></g></g><g class="divider" style=""><path d="M-106.48828125 -48 C-62.450104097947275 -47.99979322524209, -18.41192694589455 -47.99958645048417, 106.48828125 -47.999 M-106.48828125 -48 C-43.773951573631166 -47.999705534125724, 18.940378102737668 -47.999411068251455, 106.48828125 -47.999" stroke="#9370DB" stroke-width="1.3" fill="none" stroke-dasharray="0 0" style=""/></g><g class="divider" style=""><path d="M-106.48828125 48 C-61.1150009171142 48.00021304353775, -15.741720584228403 48.000426087075496, 106.48828125 48.001 M-106.48828125 48 C-61.14850377891547 48.00021288623001, -15.808726307830938 48.00042577246002, 106.48828125 48.001" stroke="#9370DB" stroke-width="1.3" fill="none" stroke-dasharray="0 0" style=""/></g></g><g class="node default " id="mermaid-svg-classId-Invoice-4" data-look="classic" transform="translate(166.734375, 594)"><g class="basic label-container outer-path"><path d="M-108.48828125 -96 L108.48828125 -96 L108.48828125 96 L-108.48828125 96" stroke="none" stroke-width="0" fill="#ECECFF" style=""/><path d="M-108.48828125 -96 C-46.82287643162476 -96, 14.842528386750473 -96, 108.48828125 -96 M-108.48828125 -96 C-49.326609566140284 -96, 9.835062117719431 -96, 108.48828125 -96 M108.48828125 -96 C108.48828125 -47.5457047679407, 108.48828125 0.9085904641186033, 108.48828125 96 M108.48828125 -96 C108.48828125 -26.59124511936153, 108.48828125 42.81750976127694, 108.48828125 96 M108.48828125 96 C31.261092310288888 96, -45.966096629422225 96, -108.48828125 96 M108.48828125 96 C40.66218987599433 96, -27.16390149801134 96, -108.48828125 96 M-108.48828125 96 C-108.48828125 32.90284294575649, -108.48828125 -30.19431410848702, -108.48828125 -96 M-108.48828125 96 C-108.48828125 26.990991340800818, -108.48828125 -42.018017318398364, -108.48828125 -96" stroke="#9370DB" stroke-width="1.3" fill="none" stroke-dasharray="0 0" style=""/></g><g class="annotation-group text" transform="translate(0, -72)"/><g class="label-group text" transform="translate(-27.5703125, -72)"><g class="label" style="font-weight: bolder" transform="translate(0,-12)"><foreignObject width="55.140625" height="24"><div xmlns="http://www.w3.org/1999/xhtml" style="display: table-cell; white-space: nowrap; line-height: 1.5; max-width: 98px; text-align: center;"><span class="nodeLabel markdown-node-label" style=""><p>Invoice</p></span></div></foreignObject></g></g><g class="members-group text" transform="translate(-96.48828125, -24)"><g class="label" style="" transform="translate(0,-12)"><foreignObject width="57.828125" height="24"><div xmlns="http://www.w3.org/1999/xhtml" style="display: table-cell; white-space: nowrap; line-height: 1.5; max-width: 110px; text-align: center;"><span class="nodeLabel markdown-node-label" style=""><p>-Long id</p></span></div></foreignObject></g><g class="label" style="" transform="translate(0,12)"><foreignObject width="158.28125" height="24"><div xmlns="http://www.w3.org/1999/xhtml" style="display: table-cell; white-space: nowrap; line-height: 1.5; max-width: 203px; text-align: center;"><span class="nodeLabel markdown-node-label" style=""><p>-String invoiceNumber</p></span></div></foreignObject></g><g class="label" style="" transform="translate(0,36)"><foreignObject width="165.40625" height="24"><div xmlns="http://www.w3.org/1999/xhtml" style="display: table-cell; white-space: nowrap; line-height: 1.5; max-width: 211px; text-align: center;"><span class="nodeLabel markdown-node-label" style=""><p>-BigDecimal grandTotal</p></span></div></foreignObject></g></g><g class="methods-group text" transform="translate(-96.48828125, 72)"><g class="label" style="" transform="translate(0,-12)"><foreignObject width="123.171875" height="24"><div xmlns="http://www.w3.org/1999/xhtml" style="display: table-cell; white-space: nowrap; line-height: 1.5; max-width: 166px; text-align: center;"><span class="nodeLabel markdown-node-label" style=""><p>+computeTaxes()</p></span></div></foreignObject></g></g><g class="divider" style=""><path d="M-108.48828125 -48 C-63.219968024517826 -47.99979136772791, -17.95165479903565 -47.99958273545581, 108.48828125 -47.999 M-108.48828125 -48 C-32.129594100621105 -47.99964807863914, 44.22909304875779 -47.99929615727829, 108.48828125 -47.999" stroke="#9370DB" stroke-width="1.3" fill="none" stroke-dasharray="0 0" style=""/></g><g class="divider" style=""><path d="M-108.48828125 48 C-36.819513451528636 48.00033030649473, 34.84925434694273 48.00066061298946, 108.48828125 48.001 M-108.48828125 48 C-29.305213397423202 48.00036493834606, 49.877854455153596 48.00072987669212, 108.48828125 48.001" stroke="#9370DB" stroke-width="1.3" fill="none" stroke-dasharray="0 0" style=""/></g></g></g></g></g><defs><filter id="mermaid-svg-drop-shadow" height="130%" width="130%"><feDropShadow dx="4" dy="4" stdDeviation="0" flood-opacity="0.06" flood-color="#000000"/></filter></defs><defs><filter id="mermaid-svg-drop-shadow-small" height="150%" width="150%"><feDropShadow dx="2" dy="2" stdDeviation="0" flood-opacity="0.06" flood-color="#000000"/></filter></defs></svg>